{"title":"Strike.Back.S03E06.HDTV.Xvid-MrX","uid":7638445,"size":578301483,"categoryP":"video","categoryS":"tv_shows","magnet":"?xt=urn:btih:bae0dfd113cbb2c6d3b1f184e9999475a6d853f4&amp;dn=Strike.Back.S03E06.HDTV.Xvid-MrX&amp;tr=udp%3A%2F%2Ftracker.openbittorrent.com%3A80&amp;tr=udp%3A%2F%2Fopen.demonii.com%3A1337&amp;tr=udp%3A%2F%2Ftracker.coppersurfer.tk%3A6969&amp;tr=udp%3A%2F%2Fexodus.desync.com%3A6969","seeders":0,"leechers":1,"uploader":"D.N.M","files":-1,"time":1347714420,"description":"Strike.Back.S03E06.HDTV.Xvid-MrX\n &lt;a href=&quot;\nhttp://www.cinemax.com/strike-back&quot; rel=&quot;nofollow&quot; target=&quot;_NEW&quot;&gt;\nhttp://www.cinemax.com/strike-back&lt;/a&gt; &lt;a href=&quot;\nhttp://www.imdb.com/title/tt1492179/&quot; rel=&quot;nofollow&quot; target=&quot;_NEW&quot;&gt;\nhttp://www.imdb.com/title/tt1492179/&lt;/a&gt;\n\n\n\n\nGeneral\nComplete name                            : Strike.Back.S03E06.HDTV.Xvid-MrX.avi\nFormat                                   : AVI\nFormat/Info                              : Audio Video Interleave\nFile size                                : 550 MiB\nDuration                                 : 46mn 54s\nOverall bit rate mode                    : Variable\nOverall bit rate                         : 1 640 Kbps\n\nVideo\nID                                       : 0\nFormat                                   : MPEG-4 Visual\nFormat profile                           : Advanced Simple@L5\nFormat settings, BVOP                    : 1\nFormat settings, QPel                    : No\nFormat settings, GMC                     : No warppoints\nFormat settings, Matrix                  : Default (H.263)\nMuxing mode                              : Packed bitstream\nCodec ID                                 : XVID\nCodec ID/Hint                            : XviD\nDuration                                 : 46mn 54s\nBit rate                                 : 1 483 Kbps\nWidth                                    : 640 pixels\nHeight                                   : 352 pixels\nDisplay aspect ratio                     : 16:9\nFrame rate                               : 23.976 fps\nColor space                              : YUV\nChroma subsampling                       : 4:2:0\nBit depth                                : 8 bits\nScan type                                : Progressive\nCompression mode                         : Lossy\nBits/(Pixel*Frame)                       : 0.275\nStream size                              : 498 MiB (90%)\nWriting library                          : XviD 1.2.1 (UTC 2008-12-04)\n\nAudio\nID                                       : 1\nFormat                                   : MPEG Audio\nFormat version                           : Version 1\nFormat profile                           : Layer 3\nCodec ID                                 : 55\nCodec ID/Hint                            : MP3\nDuration                                 : 46mn 54s\nBit rate mode                            : Variable\nBit rate                                 : 144 Kbps\nMinimum bit rate                         : 128 Kbps\nChannel(s)                               : 2 channels\nSampling rate                            : 48.0 KHz\nCompression mode                         : Lossy\nStream size                              : 48.3 MiB (9%)\nAlignment                                : Aligned on interleaves\nInterleave, duration                     : 24 ms (0.58 video frame)\nInterleave, preload duration             : 159 ms\nTitle                                    : Strike.Back.S03E06\nWriting library                          : LAME3.99r\nEncoding settings                        : -m s -V 4 -q 0 -lowpass 17.5 --vbr-mt -b 128\n","torrent":{"xt":"urn:btih:bae0dfd113cbb2c6d3b1f184e9999475a6d853f4","amp;dn":"Strike.Back.S03E06.HDTV.Xvid-MrX","amp;tr":["udp%3A%2F%2Ftracker.openbittorrent.com%3A80","udp%3A%2F%2Fopen.demonii.com%3A1337","udp%3A%2F%2Ftracker.coppersurfer.tk%3A6969","udp%3A%2F%2Fexodus.desync.com%3A6969"],"infoHash":"bae0dfd113cbb2c6d3b1f184e9999475a6d853f4","infoHashBuffer":{"type":"Buffer","data":[186,224,223,209,19,203,178,198,211,177,241,132,233,153,148,117,166,216,83,244]},"announce":[],"urlList":[]}}